<?xml version="1.0" encoding="UTF-8" standalone="no"?>
<svg
   id="New"
   viewBox="0 0 150 150"
   version="1.1"
   sodipodi:docname="icon.svg"
   inkscape:version="1.2.2 (b0a8486, 2022-12-01)"
   xmlns:inkscape="http://www.inkscape.org/namespaces/inkscape"
   xmlns:sodipodi="http://sodipodi.sourceforge.net/DTD/sodipodi-0.dtd"
   xmlns="http://www.w3.org/2000/svg"
   xmlns:svg="http://www.w3.org/2000/svg">
  <sodipodi:namedview
     id="namedview122"
     pagecolor="#ffffff"
     bordercolor="#000000"
     borderopacity="0.25"
     inkscape:showpageshadow="2"
     inkscape:pageopacity="0.0"
     inkscape:pagecheckerboard="0"
     inkscape:deskcolor="#d1d1d1"
     showgrid="false"
     inkscape:zoom="6.8466667"
     inkscape:cx="46.592016"
     inkscape:cy="75.730282"
     inkscape:window-width="1751"
     inkscape:window-height="1205"
     inkscape:window-x="411"
     inkscape:window-y="25"
     inkscape:window-maximized="0"
     inkscape:current-layer="New" />
  <defs
     id="defs103">
    <style
       id="style101">.cls-1{fill:#fff;}.cls-2{fill:#5ab400;}</style>
  </defs>
  <rect
     class="cls-2"
     width="150"
     height="150"
     id="rect105"
     style="fill:#5ab400;fill-opacity:0" />
  <path
     class="cls-1"
     d="m107.78,94.14H42.22c-10.55,0-19.14-8.58-19.14-19.14s8.58-19.14,19.14-19.14h65.56c10.55,0,19.14,8.58,19.14,19.14s-8.58,19.14-19.14,19.14ZM42.22,58.86c-8.9,0-16.14,7.24-16.14,16.14s7.24,16.14,16.14,16.14h65.56c8.9,0,16.14-7.24,16.14-16.14s-7.24-16.14-16.14-16.14H42.22Z"
     id="path107"
     style="fill:#000000" />
  <circle
     class="cls-1"
     cx="48.98"
     cy="75.52"
     r="3.14"
     id="circle109"
     style="fill:#000000" />
  <path
     class="cls-1"
     d="m75,88.05c-7.2,0-13.05-5.86-13.05-13.05s5.86-13.05,13.05-13.05,13.05,5.86,13.05,13.05-5.86,13.05-13.05,13.05Zm0-23.11c-5.54,0-10.05,4.51-10.05,10.05s4.51,10.05,10.05,10.05,10.05-4.51,10.05-10.05-4.51-10.05-10.05-10.05Z"
     id="path111"
     style="fill:#000000" />
  <rect
     class="cls-1"
     x="73.5"
     y="63.45"
     width="3"
     height="23.11"
     id="rect113"
     style="fill:#000000" />
  <rect
     class="cls-1"
     x="63.45"
     y="73.5"
     width="23.11"
     height="3"
     id="rect115"
     style="fill:#000000" />
  <rect
     class="cls-1"
     x="73.5"
     y="63.45"
     width="3"
     height="23.11"
     transform="translate(-31.07 75) rotate(-45)"
     id="rect117"
     style="fill:#000000" />
  <rect
     class="cls-1"
     x="63.45"
     y="73.5"
     width="23.11"
     height="3"
     transform="translate(-31.07 75) rotate(-45)"
     id="rect119"
     style="fill:#000000" />
</svg>
