<?xml version="1.0" encoding="utf-8"?>
<!-- Generator: Adobe Illustrator 22.0.0, SVG Export Plug-In . SVG Version: 6.00 Build 0)  -->
<svg version="1.1" id="Ebene_1" xmlns="http://www.w3.org/2000/svg" xmlns:xlink="http://www.w3.org/1999/xlink" x="0px" y="0px"
	 viewBox="0 0 1024 1024" style="enable-background:new 0 0 1024 1024;" xml:space="preserve">
<style type="text/css">
	.st0{fill:#5AB400;}
	.st1{fill:#FFFFFF;}
</style>
<rect class="st0" width="1024" height="1024"/>
<path class="st1" d="M431.2,705.7c26.1,7.8,53.3,11.7,80.8,11.7c27.5,0,54.7-3.9,80.8-11.7c10-3,15.7-13.5,12.7-23.4
	c-3-10-13.5-15.7-23.4-12.7c-45.3,13.5-94.8,13.5-140,0c-10-3-20.5,2.7-23.4,12.7C415.6,692.3,421.3,702.8,431.2,705.7z"/>
<path class="st1" d="M794.7,434.7C794.7,278.8,667.9,152,512,152S229.3,278.8,229.3,434.7c0,92.4,45.3,179.1,121.2,232.1
	c3.3,2.3,7,3.4,10.8,3.4c5.9,0,11.8-2.8,15.5-8.1c6-8.5,3.9-20.3-4.7-26.2C306.2,590,267,514.8,267,434.7c0-135.1,109.9-245,245-245
	s245,109.9,245,245c0,80.1-39.3,155.2-105,201.1c-8.5,6-10.6,17.7-4.7,26.2c6,8.5,17.7,10.6,26.2,4.7
	C749.4,613.8,794.7,527.1,794.7,434.7z"/>
<path class="st1" d="M432.4,784c25.9,5.9,52.7,8.9,79.6,8.9c26.9,0,53.6-3,79.6-8.9c10.1-2.3,16.5-12.4,14.2-22.5
	c-2.3-10.1-12.4-16.5-22.6-14.2c-46.4,10.5-96,10.5-142.4,0c-10.2-2.3-20.3,4.1-22.6,14.2C415.9,771.6,422.3,781.7,432.4,784z"/>
<circle class="st1" cx="512" cy="849.4" r="22.6"/>
</svg>
