<?xml version="1.0" standalone="no"?>
<!DOCTYPE svg PUBLIC "-//W3C//DTD SVG 20010904//EN"
 "http://www.w3.org/TR/2001/REC-SVG-20010904/DTD/svg10.dtd">
<svg version="1.0" xmlns="http://www.w3.org/2000/svg"
 width="92.000000pt" height="92.000000pt" viewBox="0 0 92.000000 92.000000"
 preserveAspectRatio="xMidYMid meet">
<metadata>
Created by potrace 1.10, written by Peter Selinger 2001-2011
</metadata>
<g transform="translate(0.000000,92.000000) scale(0.100000,-0.100000)"
fill="#000000" stroke="none">
<path d="M360 639 c-166 -75 -211 -279 -91 -412 127 -141 351 -103 430 73 74
163 -57 360 -239 360 -34 0 -72 -8 -100 -21z m174 -11 c86 -26 166 -136 166
-228 0 -124 -116 -240 -240 -240 -124 0 -240 116 -240 240 0 63 23 114 75 165
70 71 145 90 239 63z"/>
<path d="M375 591 c-168 -78 -164 -314 7 -385 134 -56 288 48 288 194 0 150
-160 253 -295 191z m163 -20 c123 -64 151 -203 59 -300 -74 -77 -186 -83 -260
-13 -39 37 -67 94 -67 137 0 137 151 236 268 176z"/>
</g>
</svg>
