<?xml version="1.0" encoding="UTF-8" standalone="no"?>
<svg
   id="New"
   viewBox="0 0 150 150"
   version="1.1"
   sodipodi:docname="icon.svg"
   inkscape:version="1.2.2 (b0a8486, 2022-12-01)"
   xmlns:inkscape="http://www.inkscape.org/namespaces/inkscape"
   xmlns:sodipodi="http://sodipodi.sourceforge.net/DTD/sodipodi-0.dtd"
   xmlns="http://www.w3.org/2000/svg"
   xmlns:svg="http://www.w3.org/2000/svg">
  <sodipodi:namedview
     id="namedview6347"
     pagecolor="#ffffff"
     bordercolor="#000000"
     borderopacity="0.25"
     inkscape:showpageshadow="2"
     inkscape:pageopacity="0.0"
     inkscape:pagecheckerboard="0"
     inkscape:deskcolor="#d1d1d1"
     showgrid="false"
     inkscape:zoom="6.8466667"
     inkscape:cx="47.541383"
     inkscape:cy="77.044791"
     inkscape:window-width="1768"
     inkscape:window-height="1205"
     inkscape:window-x="267"
     inkscape:window-y="25"
     inkscape:window-maximized="0"
     inkscape:current-layer="New" />
  <defs
     id="defs6334">
    <style
       id="style6332">.cls-1{fill:#fff;}.cls-2{fill:#5ab400;}</style>
  </defs>
  <rect
     class="cls-2"
     width="150"
     height="150"
     id="rect6336"
     style="fill:#5ab400;fill-opacity:0" />
  <path
     class="cls-1"
     d="m108.5,116.5H41.5c-4.41,0-8-3.59-8-8V41.5c0-4.41,3.59-8,8-8h67c4.41,0,8,3.59,8,8v67c0,4.41-3.59,8-8,8ZM41.5,36.5c-2.76,0-5,2.24-5,5v67c0,2.76,2.24,5,5,5h67c2.76,0,5-2.24,5-5V41.5c0-2.76-2.24-5-5-5H41.5Z"
     id="path6338"
     style="fill:#000000" />
  <path
     class="cls-1"
     d="m75,104.55c-16.3,0-29.55-13.26-29.55-29.55s13.26-29.55,29.55-29.55,29.55,13.26,29.55,29.55-13.26,29.55-29.55,29.55Zm0-56.11c-14.64,0-26.55,11.91-26.55,26.55s11.91,26.55,26.55,26.55,26.55-11.91,26.55-26.55-11.91-26.55-26.55-26.55Z"
     id="path6340"
     style="fill:#000000" />
  <circle
     class="cls-1"
     cx="60.28"
     cy="75"
     r="4.99"
     id="circle6342"
     style="fill:#000000" />
  <circle
     class="cls-1"
     cx="88.9"
     cy="75"
     r="4.99"
     id="circle6344"
     style="fill:#000000" />
</svg>
