<?xml version="1.0" encoding="UTF-8" standalone="no"?>
<svg
   id="New"
   viewBox="0 0 150 150"
   version="1.1"
   sodipodi:docname="icon.svg"
   inkscape:version="1.2.2 (b0a8486, 2022-12-01)"
   xmlns:inkscape="http://www.inkscape.org/namespaces/inkscape"
   xmlns:sodipodi="http://sodipodi.sourceforge.net/DTD/sodipodi-0.dtd"
   xmlns="http://www.w3.org/2000/svg"
   xmlns:svg="http://www.w3.org/2000/svg">
  <sodipodi:namedview
     id="namedview17679"
     pagecolor="#ffffff"
     bordercolor="#000000"
     borderopacity="0.25"
     inkscape:showpageshadow="2"
     inkscape:pageopacity="0.0"
     inkscape:pagecheckerboard="0"
     inkscape:deskcolor="#d1d1d1"
     showgrid="false"
     inkscape:zoom="6.8466667"
     inkscape:cx="46.299903"
     inkscape:cy="75"
     inkscape:window-width="1387"
     inkscape:window-height="1205"
     inkscape:window-x="498"
     inkscape:window-y="25"
     inkscape:window-maximized="0"
     inkscape:current-layer="New" />
  <defs
     id="defs17612">
    <style
       id="style17610">.cls-1{fill:#fff;}.cls-2{fill:#5ab400;}</style>
  </defs>
  <rect
     class="cls-2"
     width="150"
     height="150"
     id="rect17614"
     style="fill:#5ab400;fill-opacity:0" />
  <path
     class="cls-1"
     d="m37.6,74.07l-2.82-.58c.93-4.57,2.54-8.93,4.78-12.95l2.52,1.4c-2.09,3.77-3.6,7.85-4.47,12.13Z"
     id="path17616"
     style="fill:#000000" />
  <path
     class="cls-1"
     d="m62.13,44.62l-1-2.7c3.82-1.42,7.96-2.3,12.31-2.63l.22,2.87c-4.08.31-7.96,1.14-11.53,2.46Z"
     id="path17618"
     style="fill:#000000" />
  <path
     class="cls-1"
     d="m107.63,58.79c-2.15-3.76-4.85-6.95-8.02-9.5l1.8-2.25c3.46,2.77,6.4,6.24,8.72,10.32l-2.5,1.43Z"
     id="path17620"
     style="fill:#000000" />
  <path
     class="cls-1"
     d="m92.32,110l-.8-2.77c3.97-1.14,7.63-3.25,10.88-6.25l1.95,2.12c-3.58,3.31-7.63,5.63-12.03,6.9Z"
     id="path17622"
     style="fill:#000000" />
  <path
     class="cls-1"
     d="m61.97,103.44c-3.54-3.35-6.08-7.66-7.55-12.8l2.77-.79c1.33,4.64,3.6,8.51,6.76,11.5l-1.98,2.09Z"
     id="path17624"
     style="fill:#000000" />
  <path
     class="cls-1"
     d="m65.44,63.48l-1.81-2.24c3.74-3.02,8.2-4.72,13.24-5.04l.18,2.87c-4.43.28-8.34,1.76-11.61,4.4Z"
     id="path17626"
     style="fill:#000000" />
  <path
     class="cls-1"
     d="m95.1,67.99c-2.56-4.24-6.15-7.02-10.67-8.24l.75-2.78c5.26,1.43,9.43,4.64,12.38,9.54l-2.46,1.49Z"
     id="path17628"
     style="fill:#000000" />
  <path
     class="cls-1"
     d="m56.09,82.46l-2.88-.02c.02-3.68,1.54-9.74,4.9-14.96l2.42,1.56c-3.02,4.71-4.42,10.26-4.44,13.42Z"
     id="path17630"
     style="fill:#000000" />
  <path
     class="cls-1"
     d="m84.12,111.14c-5.79,0-10.92-1.03-15.23-3.04l1.21-2.61c3.93,1.83,8.65,2.76,14.02,2.77v2.88Z"
     id="path17632"
     style="fill:#000000" />
  <path
     class="cls-1"
     d="m109.71,96.9l-2.37-1.64c2.39-3.46,4.27-7.5,5.15-11.09l2.8.69c-.98,3.97-2.96,8.25-5.58,12.04Z"
     id="path17634"
     style="fill:#000000" />
  <path
     class="cls-1"
     d="m81.69,98.37c-.79,0-1.44-.64-1.44-1.44s.64-1.44,1.44-1.44c2.93,0,5.55-.53,7.78-1.58.72-.34,1.58-.03,1.91.69.34.72.03,1.58-.69,1.91-2.61,1.23-5.64,1.85-9,1.85Z"
     id="path17636"
     style="fill:#000000" />
  <path
     class="cls-1"
     d="m97.83,90.23l-2.41-1.58c2.57-3.93,3.13-8.51,3.13-9.95,0-.48-.13-1.91-.61-3.82l2.79-.71c.52,2.05.7,3.72.7,4.53,0,2.08-.75,7.17-3.6,11.52Z"
     id="path17638"
     style="fill:#000000" />
  <path
     class="cls-1"
     d="m112.85,76.77c-.28-3.87-1-7.58-2.15-11.02l2.73-.91c1.23,3.68,2,7.62,2.29,11.73l-2.87.2Z"
     id="path17640"
     style="fill:#000000" />
  <path
     class="cls-1"
     d="m93.21,45.31c-3.6-1.69-7.61-2.74-11.91-3.13l.26-2.87c4.64.42,8.97,1.56,12.88,3.39l-1.22,2.61Z"
     id="path17642"
     style="fill:#000000" />
  <path
     class="cls-1"
     d="m46.39,55.68l-2.21-1.85c2.76-3.3,5.99-6.1,9.59-8.33l1.51,2.45c-3.34,2.06-6.33,4.66-8.9,7.73Z"
     id="path17644"
     style="fill:#000000" />
  <path
     class="cls-1"
     d="m35.29,84.88c-.79,0-1.44-.64-1.44-1.44v-.24c0-.23,0-.47.01-.69.02-.79.7-1.45,1.48-1.39.79.02,1.42.69,1.39,1.48,0,.2,0,.41,0,.61v.24c0,.79-.64,1.44-1.44,1.44Z"
     id="path17646"
     style="fill:#000000" />
  <path
     class="cls-1"
     d="m35.57,83.07c-.14,0-.28,0-.42-.02-2.76-.19-4.97-2.55-4.97-5.37,0-2.97,2.42-5.4,5.39-5.4.3,0,.58.02.87.07,2.61.41,4.52,2.65,4.52,5.32,0,2.97-2.42,5.39-5.4,5.39Zm0-7.9c-1.38,0-2.51,1.13-2.51,2.52,0,1.31,1.03,2.41,2.34,2.5.09,0,.13,0,.17,0,1.39,0,2.52-1.12,2.52-2.51,0-1.23-.91-2.29-2.11-2.48-.15-.03-.27-.04-.4-.04Z"
     id="path17648"
     style="fill:#000000" />
  <path
     class="cls-1"
     d="m42.9,63.28c-1.01,0-2-.29-2.85-.83-1.56-.95-2.54-2.7-2.54-4.56,0-2.97,2.42-5.39,5.39-5.39,1.19,0,2.32.38,3.27,1.11,1.35,1.03,2.12,2.59,2.12,4.28,0,2.97-2.42,5.39-5.39,5.39Zm0-7.9c-1.39,0-2.52,1.13-2.52,2.52,0,.86.45,1.67,1.18,2.11.41.26.87.39,1.33.39,1.38,0,2.51-1.12,2.51-2.51,0-.79-.36-1.52-.99-2-.44-.34-.96-.51-1.51-.51Z"
     id="path17650"
     style="fill:#000000" />
  <path
     class="cls-1"
     d="m94.1,97.87c-1.67,0-3.25-.78-4.27-2.1-.03-.04-.07-.08-.1-.12-.67-.92-1.02-2.01-1.02-3.16,0-2.97,2.42-5.4,5.39-5.4,1.25,0,2.47.44,3.44,1.23,1.25,1.06,1.95,2.57,1.95,4.16,0,2.97-2.42,5.39-5.4,5.39Zm-2.09-4s.05.06.07.09c.47.66,1.21,1.03,2.02,1.03,1.39,0,2.52-1.12,2.52-2.51,0-.75-.33-1.46-.92-1.95-.44-.36-1.02-.57-1.6-.57-1.38,0-2.51,1.13-2.51,2.52,0,.5.14.97.41,1.38Z"
     id="path17652"
     style="fill:#000000" />
  <path
     class="cls-1"
     d="m77.48,45.95c-2.89,0-5.24-2.24-5.37-5.11-.01-.09-.01-.18-.01-.28,0-2.97,2.42-5.4,5.39-5.4s5.4,2.42,5.4,5.4c0,.1,0,.2-.01.3-.15,2.86-2.5,5.09-5.38,5.09Zm-2.51-5.4s0,.08,0,.12c.04,1.33,1.17,2.4,2.5,2.4s2.45-1.05,2.51-2.39c0-.04,0-.08.01-.12h0c0-1.39-1.13-2.52-2.52-2.52s-2.5,1.12-2.51,2.5Zm5.03.01s0,.03,0,.04l1.44-.04h-1.44Zm.01-.07s0,.02,0,.03c0-.01,0-.02,0-.03Zm-5.05-.03h0s0,0,0,0Z"
     id="path17654"
     style="fill:#000000" />
  <path
     class="cls-1"
     d="m97.3,51.26c-2.97,0-5.39-2.42-5.39-5.39,0-.9.22-1.78.65-2.55.92-1.74,2.74-2.83,4.74-2.83,2.97,0,5.39,2.42,5.39,5.39,0,1.16-.35,2.24-1.02,3.15-.99,1.4-2.63,2.24-4.37,2.24Zm0-7.9c-.93,0-1.78.51-2.21,1.32-.2.37-.31.78-.31,1.19,0,1.39,1.13,2.52,2.52,2.52.82,0,1.56-.38,2.03-1.05.31-.42.47-.94.47-1.47,0-1.38-1.12-2.51-2.51-2.51Z"
     id="path17656"
     style="fill:#000000" />
  <path
     class="cls-1"
     d="m110.67,66.99c-2.97,0-5.4-2.42-5.4-5.4,0-2.05,1.14-3.9,2.97-4.81.73-.37,1.57-.58,2.42-.58,2.97,0,5.39,2.42,5.39,5.39,0,2.22-1.4,4.25-3.48,5.04-.6.23-1.24.35-1.91.35Zm0-7.9c-.4,0-.78.09-1.12.27-.87.43-1.39,1.29-1.39,2.24,0,1.39,1.13,2.52,2.52,2.52.31,0,.6-.05.88-.16.99-.38,1.63-1.3,1.63-2.36,0-1.38-1.12-2.51-2.51-2.51Z"
     id="path17658"
     style="fill:#000000" />
  <path
     class="cls-1"
     d="m114.43,86c-.32,0-.57-.02-.83-.07-2.57-.34-4.57-2.63-4.57-5.31,0-2.89,2.24-5.24,5.11-5.38.12-.01.22-.01.28-.01,2.97,0,5.39,2.42,5.39,5.4s-2.42,5.39-5.39,5.39Zm.01-7.9s-.08,0-.12,0c-1.33.04-2.41,1.17-2.41,2.51,0,1.25.93,2.31,2.16,2.48.18.03.26.03.35.03,1.38,0,2.51-1.12,2.51-2.51s-1.12-2.51-2.49-2.52Zm.13-.02s-.07.01-.11.02c.03,0,.07-.01.11-.02Z"
     id="path17660"
     style="fill:#000000" />
  <path
     class="cls-1"
     d="m88.06,114.83c-2.83,0-5.19-2.21-5.37-5.03,0-.07-.01-.21-.01-.35,0-2.97,2.42-5.39,5.39-5.39,2.54,0,4.76,1.8,5.28,4.28.08.33.12.7.12,1.11,0,2.97-2.42,5.39-5.39,5.39Zm0-7.9c-1.38,0-2.51,1.13-2.51,2.52v.12c.09,1.36,1.19,2.39,2.51,2.39,1.39,0,2.52-1.12,2.52-2.51,0-.19-.02-.34-.05-.49-.25-1.19-1.28-2.03-2.46-2.03Z"
     id="path17662"
     style="fill:#000000" />
  <path
     class="cls-1"
     d="m106.12,104.6c-1.41,0-2.74-.54-3.75-1.52-1.06-1.03-1.64-2.41-1.64-3.87,0-2.97,2.42-5.39,5.39-5.39,1.19,0,2.35.4,3.29,1.12,1.31.99,2.11,2.59,2.11,4.27,0,2.97-2.42,5.4-5.4,5.4Zm0-7.9c-1.38,0-2.51,1.12-2.51,2.51,0,.69.27,1.33.77,1.81.47.45,1.08.7,1.74.7,1.39,0,2.52-1.13,2.52-2.52,0-.78-.37-1.52-.98-1.98-.45-.35-.98-.53-1.54-.53Z"
     id="path17664"
     style="fill:#000000" />
  <path
     class="cls-1"
     d="m98.1,76.16c-2.97,0-5.4-2.42-5.4-5.4,0-2.06,1.15-3.91,2.99-4.81.72-.37,1.56-.57,2.41-.57,2.97,0,5.39,2.42,5.39,5.39,0,2.34-1.49,4.4-3.71,5.13-.56.18-1.12.27-1.68.27Zm0-7.9c-.39,0-.77.09-1.11.27-.87.43-1.4,1.28-1.4,2.24,0,1.65,1.61,2.93,3.31,2.39,1.02-.33,1.71-1.3,1.71-2.39,0-1.38-1.12-2.51-2.51-2.51Z"
     id="path17666"
     style="fill:#000000" />
  <path
     class="cls-1"
     d="m80.92,63.09c-2.97,0-5.39-2.42-5.39-5.39.04-3,2.46-5.39,5.39-5.39s5.39,2.42,5.39,5.39c0,.35-.03.67-.09.96-.42,2.54-2.66,4.43-5.29,4.43Zm0-7.9c-1.37,0-2.5,1.11-2.52,2.47,0,1.42,1.13,2.55,2.52,2.55,1.23,0,2.26-.88,2.46-2.09.03-.16.04-.28.04-.43,0-1.38-1.12-2.51-2.51-2.51Z"
     id="path17668"
     style="fill:#000000" />
  <path
     class="cls-1"
     d="m61.69,70.49c-1.18,0-2.3-.37-3.24-1.08-1.34-1.01-2.15-2.62-2.15-4.31,0-2.97,2.42-5.39,5.39-5.39,1.46,0,2.88.6,3.89,1.65.97,1.01,1.51,2.34,1.51,3.73,0,2.97-2.42,5.39-5.39,5.39Zm0-7.9c-1.38,0-2.51,1.12-2.51,2.51,0,.8.36,1.53,1,2.01.44.33.96.51,1.51.51,1.39,0,2.52-1.13,2.52-2.52,0-.65-.25-1.27-.7-1.74-.48-.5-1.12-.77-1.81-.77Z"
     id="path17670"
     style="fill:#000000" />
  <path
     class="cls-1"
     d="m66.06,110.25c-2.97,0-5.4-2.42-5.4-5.39,0-1.22.4-2.38,1.16-3.35,1.04-1.3,2.58-2.04,4.23-2.04,2.97,0,5.39,2.42,5.39,5.39,0,.94-.25,1.86-.71,2.66-.93,1.68-2.73,2.73-4.68,2.73Zm0-7.9c-.77,0-1.49.35-1.98.95-.35.44-.54.98-.54,1.56,0,1.39,1.13,2.52,2.52,2.52.9,0,1.74-.49,2.17-1.27.23-.39.34-.8.34-1.24,0-1.38-1.12-2.51-2.51-2.51Z"
     id="path17672"
     style="fill:#000000" />
  <path
     class="cls-1"
     d="m54.97,91.77c-2.97,0-5.39-2.42-5.39-5.4,0-2.77,2.15-5.12,4.9-5.36.16-.02.32-.03.49-.03,2.97,0,5.4,2.42,5.4,5.39,0,2.53-1.79,4.74-4.25,5.27-.34.08-.73.12-1.14.12Zm0-7.9h-.11s-.06.01-.1.01c-1.29.1-2.3,1.2-2.3,2.49,0,1.39,1.12,2.52,2.51,2.52.19,0,.37-.02.51-.05,1.17-.25,2-1.29,2-2.46,0-1.38-1.13-2.51-2.52-2.51Z"
     id="path17674"
     style="fill:#000000" />
  <path
     class="cls-1"
     d="m57.99,50.2c-1.95,0-3.76-1.06-4.71-2.77-.44-.78-.68-1.68-.68-2.62,0-2.97,2.42-5.4,5.4-5.4,2.17,0,4.12,1.29,4.96,3.29.28.64.43,1.36.43,2.1,0,2.97-2.42,5.39-5.39,5.39Zm0-7.9c-1.39,0-2.52,1.13-2.52,2.52,0,.44.1.84.31,1.2.45.81,1.3,1.31,2.21,1.31,1.38,0,2.51-1.12,2.51-2.51,0-.34-.07-.68-.19-.97-.4-.95-1.3-1.55-2.31-1.55Z"
     id="path17676"
     style="fill:#000000" />
</svg>
