<?xml version="1.0" encoding="UTF-8" standalone="no"?>
<svg
   id="New"
   viewBox="0 0 150 150"
   version="1.1"
   sodipodi:docname="icon.svg"
   inkscape:version="1.2.2 (b0a8486, 2022-12-01)"
   xmlns:inkscape="http://www.inkscape.org/namespaces/inkscape"
   xmlns:sodipodi="http://sodipodi.sourceforge.net/DTD/sodipodi-0.dtd"
   xmlns="http://www.w3.org/2000/svg"
   xmlns:svg="http://www.w3.org/2000/svg">
  <sodipodi:namedview
     id="namedview131"
     pagecolor="#ffffff"
     bordercolor="#000000"
     borderopacity="0.25"
     inkscape:showpageshadow="2"
     inkscape:pageopacity="0.0"
     inkscape:pagecheckerboard="0"
     inkscape:deskcolor="#d1d1d1"
     showgrid="false"
     inkscape:zoom="6.8466667"
     inkscape:cx="46.592016"
     inkscape:cy="75.584226"
     inkscape:window-width="1581"
     inkscape:window-height="1205"
     inkscape:window-x="545"
     inkscape:window-y="25"
     inkscape:window-maximized="0"
     inkscape:current-layer="New" />
  <defs
     id="defs122">
    <style
       id="style120">.cls-1{fill:#fff;}.cls-2{fill:#5ab400;}</style>
  </defs>
  <rect
     class="cls-2"
     width="150"
     height="150"
     id="rect124"
     style="fill:#5ab400;fill-opacity:0" />
  <path
     class="cls-1"
     d="m75,116.5c-22.88,0-41.5-18.62-41.5-41.5s18.62-41.5,41.5-41.5,41.5,18.62,41.5,41.5-18.62,41.5-41.5,41.5Zm0-80c-21.23,0-38.5,17.27-38.5,38.5s17.27,38.5,38.5,38.5,38.5-17.27,38.5-38.5-17.27-38.5-38.5-38.5Z"
     id="path126"
     style="fill:#000000" />
  <path
     class="cls-1"
     d="m75,101.92c-14.85,0-26.92-12.08-26.92-26.92s12.08-26.92,26.92-26.92,26.92,12.08,26.92,26.92-12.08,26.92-26.92,26.92Zm0-50.85c-13.19,0-23.92,10.73-23.92,23.92s10.73,23.92,23.92,23.92,23.92-10.73,23.92-23.92-10.73-23.92-23.92-23.92Z"
     id="path128"
     style="fill:#000000" />
</svg>
