<?xml version="1.0" standalone="no"?>
<!DOCTYPE svg PUBLIC "-//W3C//DTD SVG 20010904//EN"
 "http://www.w3.org/TR/2001/REC-SVG-20010904/DTD/svg10.dtd">
<svg version="1.0" xmlns="http://www.w3.org/2000/svg"
 width="900.000000pt" height="897.000000pt" viewBox="0 0 900.000000 897.000000"
 preserveAspectRatio="xMidYMid meet">
<metadata>
Created by potrace 1.10, written by Peter Selinger 2001-2011
</metadata>
<g transform="translate(0.000000,897.000000) scale(0.100000,-0.100000)"
fill="#000000" stroke="none">
<path d="M4240 7674 c-75 -7 -261 -51 -365 -85 -54 -19 -113 -43 -205 -87
-172 -82 -383 -244 -517 -398 -71 -81 -163 -198 -163 -208 0 -3 -13 -24 -29
-48 -79 -119 -183 -372 -208 -508 -2 -14 -12 -59 -21 -100 -24 -111 -23 -484
2 -595 62 -279 127 -444 245 -625 20 -30 38 -60 41 -65 19 -39 110 -146 199
-236 145 -144 248 -219 303 -219 34 0 83 29 101 59 38 64 16 117 -80 192 -138
108 -295 280 -369 404 -16 28 -35 59 -41 70 -12 20 -44 86 -67 140 -37 83 -62
165 -93 295 -14 60 -18 118 -18 290 1 232 10 293 71 477 163 487 581 863 1092
983 383 89 819 10 1152 -209 156 -103 325 -270 427 -424 44 -66 134 -235 146
-273 3 -10 13 -38 21 -61 49 -134 86 -344 86 -493 0 -86 -22 -274 -40 -340
-33 -123 -74 -239 -111 -316 -105 -216 -268 -409 -479 -566 -52 -39 -69 -85
-54 -145 16 -65 99 -102 157 -71 33 17 135 96 186 145 25 23 49 43 52 43 14 0
171 192 232 283 62 94 137 236 170 322 8 22 22 58 30 80 8 22 22 67 30 100 9
33 24 92 34 130 26 102 27 554 0 665 -56 238 -136 441 -228 578 -16 24 -29 45
-29 48 0 6 -80 111 -120 159 -101 119 -224 229 -350 316 -73 50 -79 53 -151
93 -78 42 -78 42 -164 76 -139 56 -138 56 -340 105 -52 13 -124 18 -280 20
-115 2 -230 1 -255 -1z"/>
<path d="M3945 4506 c-85 -37 -106 -134 -42 -194 26 -24 110 -51 247 -78 76
-15 138 -19 305 -18 212 0 268 7 421 50 28 8 57 14 65 14 18 1 63 39 78 67 28
54 -3 128 -66 158 -33 16 -40 16 -92 1 -155 -44 -213 -51 -416 -50 -201 0
-290 11 -413 50 -51 17 -49 17 -87 0z"/>
<path d="M3933 4024 c-59 -29 -84 -94 -57 -150 31 -64 78 -81 304 -109 269
-32 663 -6 786 52 64 30 84 117 39 171 -41 49 -74 57 -158 39 -112 -24 -303
-47 -397 -47 -90 0 -280 22 -394 46 -84 17 -84 17 -123 -2z"/>
<path d="M4384 3530 c-41 -16 -74 -72 -74 -124 0 -60 24 -102 72 -127 54 -27
98 -24 146 10 52 38 54 42 55 110 0 68 -21 107 -70 127 -36 16 -97 17 -129 4z"/>
<path d="M3775 2391 c-147 -41 -235 -151 -243 -302 -4 -70 -1 -83 26 -140 17
-35 46 -78 64 -96 33 -32 145 -93 170 -93 18 0 105 -32 143 -52 40 -21 72 -67
87 -121 31 -118 -72 -247 -198 -247 -83 0 -151 47 -197 137 -29 56 -119 67
-159 19 -31 -39 -31 -65 2 -132 36 -74 101 -136 186 -179 55 -28 66 -30 169
-30 106 0 112 2 174 35 109 59 158 117 202 240 60 169 -27 373 -196 461 -16 8
-57 23 -90 33 -144 43 -195 84 -195 153 0 64 71 133 136 133 41 0 62 -11 116
-61 40 -36 86 -38 128 -7 26 19 30 28 30 70 0 44 -4 53 -46 94 -25 25 -65 55
-90 66 -50 22 -171 32 -219 19z"/>
<path d="M4403 2390 c-43 -17 -53 -58 -53 -210 l0 -140 -30 -7 c-41 -8 -80
-56 -80 -98 0 -41 26 -75 71 -89 l34 -11 6 -240 c3 -132 9 -251 14 -265 21
-62 73 -123 134 -154 40 -21 130 -30 164 -17 39 15 63 73 46 113 -15 38 -55
68 -89 68 -16 0 -36 10 -51 26 -24 25 -24 27 -24 245 0 232 2 243 46 232 34
-9 89 8 114 35 35 37 33 81 -4 121 -26 27 -35 31 -85 31 -74 0 -77 8 -75 169
1 99 -3 135 -15 158 -20 40 -71 54 -123 33z"/>
<path d="M1419 2004 l-24 -26 0 -390 0 -390 28 -24 c40 -34 90 -32 128 5 l29
29 0 265 0 264 29 40 c42 58 124 79 196 49 39 -17 68 -42 81 -71 5 -11 11
-141 14 -288 l5 -269 28 -24 c40 -34 90 -32 128 5 l29 29 0 267 0 267 29 37
c67 85 206 78 264 -12 l27 -41 0 -247 c0 -146 4 -258 10 -276 21 -60 104 -72
151 -22 l29 31 0 269 c0 244 -2 275 -20 326 -48 138 -178 223 -338 223 -63 0
-83 -5 -145 -35 -40 -19 -79 -40 -87 -46 -13 -9 -25 -5 -60 18 -70 45 -108 56
-202 61 -65 2 -94 -1 -117 -12 -37 -20 -70 -20 -95 -1 -32 24 -89 19 -117 -11z"/>
<path d="M2717 2002 c-36 -37 -35 -80 2 -168 16 -38 43 -104 60 -146 70 -175
94 -234 106 -263 8 -16 26 -60 41 -98 l27 -67 -28 -68 c-15 -37 -33 -80 -40
-97 -100 -229 -103 -276 -17 -312 54 -22 102 12 136 97 19 47 36 88 60 143 7
17 28 68 46 112 17 44 38 94 45 110 7 17 34 82 60 145 25 63 52 129 60 145 7
17 34 82 60 145 26 63 51 123 56 132 18 35 39 104 39 130 0 14 -12 40 -26 57
-20 24 -34 31 -63 31 -59 0 -73 -15 -125 -133 -21 -47 -132 -319 -140 -340
-15 -45 -30 -17 -148 273 -72 178 -88 200 -148 200 -27 0 -43 -7 -63 -28z"/>
<path d="M4907 2019 c-45 -26 -47 -47 -47 -429 0 -384 2 -404 49 -430 46 -24
113 -4 130 39 5 14 11 118 13 231 l4 205 29 54 c38 68 93 115 161 137 53 16
67 16 197 -3 53 -7 80 2 100 36 56 96 -40 171 -219 171 -80 0 -172 -24 -218
-56 -30 -21 -42 -18 -77 21 -26 28 -40 35 -68 35 -20 0 -44 -5 -54 -11z"/>
<path d="M5905 2018 c-83 -28 -144 -65 -195 -117 -217 -223 -154 -575 128
-712 64 -32 72 -33 187 -33 116 0 122 1 186 33 90 45 161 117 207 210 33 66
37 85 41 164 5 129 -16 201 -87 296 -45 61 -118 114 -199 145 -55 21 -85 26
-153 25 -47 0 -98 -5 -115 -11z m196 -193 c57 -20 104 -57 137 -108 23 -37 26
-52 26 -127 0 -75 -3 -90 -26 -125 -93 -142 -265 -168 -386 -57 -56 51 -72 91
-72 185 0 78 2 86 33 130 39 55 72 82 123 101 53 19 113 19 165 1z"/>
<path d="M6604 2012 c-43 -34 -44 -46 -44 -424 0 -342 1 -365 20 -395 35 -58
118 -56 157 4 16 24 19 59 23 294 l5 267 25 27 c68 73 180 72 248 -3 l32 -35
0 -268 c0 -263 0 -268 23 -294 14 -17 36 -28 63 -32 52 -7 91 24 104 82 6 22
10 144 9 272 0 273 1 279 90 318 71 32 154 9 196 -52 l25 -38 0 -261 0 -262
29 -31 c40 -43 90 -43 132 -1 l30 30 -3 292 c-3 284 -4 294 -26 336 -35 67
-95 125 -159 157 -113 57 -272 43 -370 -31 -40 -30 -43 -30 -95 4 -24 16 -63
36 -88 45 -58 21 -178 22 -227 2 -19 -8 -46 -15 -58 -15 -12 0 -28 7 -35 15
-17 20 -80 19 -106 -3z"/>
</g>
</svg>
