<?xml version="1.0" standalone="no"?>
<!DOCTYPE svg PUBLIC "-//W3C//DTD SVG 20010904//EN"
 "http://www.w3.org/TR/2001/REC-SVG-20010904/DTD/svg10.dtd">
<svg version="1.0" xmlns="http://www.w3.org/2000/svg"
 width="92.000000pt" height="92.000000pt" viewBox="0 0 92.000000 92.000000"
 preserveAspectRatio="xMidYMid meet">
<metadata>
Created by potrace 1.15, written by Peter Selinger 2001-2017
</metadata>
<g transform="translate(0.000000,92.000000) scale(0.100000,-0.100000)"
fill="#000000" stroke="none">
<path d="M375 756 c-37 -17 -80 -62 -94 -99 -6 -16 -11 -54 -11 -85 0 -58 1
-59 74 -178 26 -43 28 -54 27 -135 -2 -82 0 -89 17 -89 11 0 25 -7 32 -15 16
-20 79 -20 86 0 4 8 15 15 25 15 17 0 19 8 19 88 0 87 1 90 41 153 23 35 48
78 55 96 35 83 2 186 -74 234 -38 24 -56 29 -106 29 -34 -1 -74 -7 -91 -14z
m182 -45 c49 -36 79 -102 70 -157 -3 -20 -24 -64 -46 -98 -22 -33 -45 -73 -52
-88 -7 -16 -20 -28 -31 -28 -16 0 -18 9 -18 64 0 58 2 65 21 68 31 4 63 50 54
77 -7 23 -43 28 -75 11 -13 -7 -21 -7 -25 0 -3 5 -22 10 -41 10 -32 0 -34 -2
-34 -32 0 -36 24 -68 52 -68 16 0 18 -8 18 -65 0 -58 -2 -65 -20 -65 -13 0
-27 15 -44 48 -14 26 -39 67 -55 92 -25 36 -31 56 -31 96 0 134 150 212 257
135z"/>
</g>
</svg>
