<?xml version="1.0" encoding="UTF-8" standalone="no"?>
<svg
   id="New"
   viewBox="0 0 150 150"
   version="1.1"
   sodipodi:docname="icon.svg"
   inkscape:version="1.2.2 (b0a8486, 2022-12-01)"
   xmlns:inkscape="http://www.inkscape.org/namespaces/inkscape"
   xmlns:sodipodi="http://sodipodi.sourceforge.net/DTD/sodipodi-0.dtd"
   xmlns="http://www.w3.org/2000/svg"
   xmlns:svg="http://www.w3.org/2000/svg">
  <sodipodi:namedview
     id="namedview1107"
     pagecolor="#ffffff"
     bordercolor="#000000"
     borderopacity="0.25"
     inkscape:showpageshadow="2"
     inkscape:pageopacity="0.0"
     inkscape:pagecheckerboard="0"
     inkscape:deskcolor="#d1d1d1"
     showgrid="false"
     inkscape:zoom="5.6666667"
     inkscape:cx="73.058824"
     inkscape:cy="74.911765"
     inkscape:window-width="1387"
     inkscape:window-height="1205"
     inkscape:window-x="573"
     inkscape:window-y="25"
     inkscape:window-maximized="0"
     inkscape:current-layer="New" />
  <defs
     id="defs1092">
    <style
       id="style1090">.cls-1{fill:#fff;}</style>
  </defs>
  <path
     class="cls-1"
     d="m53.62,76.07c-.41,0-.82-.17-1.12-.5-.98-1.09-1.88-2.28-2.69-3.54-.44-.67-.26-1.57.39-2.04.66-.46,1.56-.33,2.05.3l.07.09c.31.39,1.25,1.56,2.51,3.3.47.65.34,1.55-.28,2.05-.28.22-.61.33-.94.33Z"
     id="path1094"
     style="fill:#000000;fill-opacity:1" />
  <path
     class="cls-1"
     d="m96.45,75.99c-.33,0-.66-.11-.94-.33-.62-.5-.75-1.4-.28-2.05,1.23-1.71,2.17-2.89,2.49-3.27.51-.6,1.4-.71,2.04-.24.64.47.8,1.35.37,2.02-.75,1.16-1.61,2.3-2.56,3.37-.3.33-.71.5-1.12.5Z"
     id="path1096"
     style="fill:#000000;fill-opacity:1" />
  <path
     class="cls-1"
     d="m86.64,98.44c-.83,0-1.5-.67-1.5-1.5,0-8.18,6.33-18.13,10.1-23.33,1.21-1.68,2.14-2.85,2.48-3.25,2.85-4.38,4.36-9.47,4.36-14.73,0-14.93-12.14-27.08-27.07-27.08s-27.08,12.15-27.08,27.08c0,5.24,1.5,10.32,4.34,14.69l.06.07c.31.39,1.25,1.56,2.51,3.3h0s.06.08.08.12c3.7,5.14,9.95,15.05,9.95,23.13,0,.83-.67,1.5-1.5,1.5s-1.5-.67-1.5-1.5c0-7.25-5.9-16.53-9.42-21.42,0-.01-.02-.03-.03-.04l-.02-.03c-1.21-1.68-2.12-2.81-2.42-3.18l-.07-.08s-.08-.1-.12-.16c-3.19-4.88-4.87-10.55-4.87-16.4,0-16.59,13.49-30.08,30.08-30.08s30.07,13.49,30.07,30.08c0,5.86-1.69,11.53-4.88,16.41h0c-.04.07-.1.14-.14.19-.28.33-1.17,1.44-2.39,3.14-2.87,3.96-9.53,13.97-9.53,21.57,0,.83-.67,1.5-1.5,1.5Zm10.96-27.89s0,0,0,0t0,0Zm0,0h0Zm.12-.2h0Z"
     id="path1098"
     style="fill:#000000;fill-opacity:1" />
  <path
     class="cls-1"
     d="m86.64,98.44h-23.28c-.83,0-1.5-.67-1.5-1.5s.67-1.5,1.5-1.5h23.28c.83,0,1.5.67,1.5,1.5s-.67,1.5-1.5,1.5Z"
     id="path1100"
     style="fill:#000000;fill-opacity:1" />
  <path
     class="cls-1"
     d="m98.94,72.73c-.41,0-.81-.17-1.11-.49-.56-.61-.51-1.56.1-2.12.61-.56,1.57-.52,2.12.1.56.61.52,1.56-.1,2.11h-.01c-.29.27-.65.4-1.01.4Z"
     id="path1102"
     style="fill:#000000;fill-opacity:1" />
  <path
     class="cls-1"
     d="m78.67,124.44h-7.32c-.44,0-.87-.2-1.15-.54l-3.55-4.24h-3.28c-.83,0-1.5-.67-1.5-1.5v-21.22c0-.83.67-1.5,1.5-1.5s1.5.67,1.5,1.5v19.72h2.48c.44,0,.87.2,1.15.54l3.55,4.24h5.92l3.55-4.24c.29-.34.71-.54,1.15-.54h2.48v-19.72c0-.83.67-1.5,1.5-1.5s1.5.67,1.5,1.5v21.22c0,.83-.67,1.5-1.5,1.5h-3.28l-3.55,4.24c-.29.34-.71.54-1.15.54Z"
     id="path1104"
     style="fill:#000000;fill-opacity:1" />
</svg>
